<?xml version="1.0" encoding="utf-8"?>
<!-- Generator: Adobe Illustrator 23.0.5, SVG Export Plug-In . SVG Version: 6.00 Build 0)  -->
<svg version="1.1" id="Слой_1" xmlns="http://www.w3.org/2000/svg" xmlns:xlink="http://www.w3.org/1999/xlink" x="0px" y="0px"
	 viewBox="0 0 247.75 44.79" style="enable-background:new 0 0 247.75 44.79;" xml:space="preserve">
<style type="text/css">
	.st0{clip-path:url(#SVGID_2_);fill:#1A1A1A;}
	.st1{clip-path:url(#SVGID_2_);fill:#00056B;}
	.st2{clip-path:url(#SVGID_4_);}
	.st3{fill:#333789;}
</style>
<g>
	<defs>
		<rect id="SVGID_1_" y="0" width="247.75" height="44.79"/>
	</defs>
	<clipPath id="SVGID_2_">
		<use xlink:href="#SVGID_1_"  style="overflow:visible;"/>
	</clipPath>
	<path class="st0" d="M73.41,24.24c-2.19,2.3-4.64,3-7.45,3c-3,0-5.23-1-7.05-2.78c-2.63-2.63-2.67-5.6-2.67-10.64
		s0.04-8.01,2.67-10.64c1.82-1.78,4.04-2.78,7.05-2.78c6.16,0,9.23,4.01,9.94,8.46H70.7C70.1,6.33,68.58,5,65.95,5
		c-1.41,0-2.52,0.56-3.3,1.41c-0.96,1.11-1.26,2.37-1.26,7.42s0.3,6.34,1.26,7.45c0.78,0.85,1.89,1.37,3.3,1.37
		c1.59,0,2.85-0.56,3.67-1.48c0.85-0.96,1.19-2.15,1.19-3.52v-0.96h-4.86v-4.34h9.98v3.86C75.93,20.02,75.33,22.24,73.41,24.24"/>
	<path class="st0" d="M95.21,27.03l-5.15-10.53h-3.71v10.53h-5.16V0.62h10.35c5.38,0,8.57,3.67,8.57,8.08
		c0,3.71-2.26,6.01-4.82,6.93l5.9,11.39H95.21z M91.2,5.22h-4.86v6.97h4.86c2.26,0,3.75-1.45,3.75-3.49
		C94.95,6.66,93.47,5.22,91.2,5.22"/>
	<path class="st0" d="M120.46,27.03l-1.56-4.67h-9.38l-1.6,4.67h-5.38l9.61-26.41h4.04l9.64,26.41H120.46z M114.31,8.41l-3.34,9.6
		h6.57L114.31,8.41z"/>
	<polygon class="st0" points="144.71,27.03 134.25,10.82 134.25,27.03 129.1,27.03 129.1,0.62 133.7,0.62 144.16,16.79 144.16,0.62 
		149.31,0.62 149.31,27.03 	"/>
	<path class="st0" d="M172.97,23.17c-1.89,2.63-4.38,3.86-7.97,3.86h-9.53V0.62H165c3.6,0,6.08,1.22,7.97,3.86
		c1.63,2.26,1.67,4.97,1.67,9.35S174.6,20.91,172.97,23.17 M168.41,6.85c-0.85-1.08-2.11-1.63-3.86-1.63h-3.93v17.21h3.93
		c1.74,0,3-0.56,3.86-1.63c0.96-1.15,1.07-2.82,1.07-6.97C169.48,9.67,169.37,8,168.41,6.85"/>
	<polygon class="st0" points="179.9,27.03 179.9,0.62 197.29,0.62 197.29,5.22 185.06,5.22 185.06,11.41 195.48,11.41 195.48,16.01 
		185.06,16.01 185.06,22.43 197.29,22.43 197.29,27.03 	"/>
	<path class="st0" d="M218.25,24.47c-1.78,1.78-4,2.78-7.05,2.78c-3.04,0-5.3-1-7.08-2.78c-2.63-2.63-2.67-5.6-2.67-10.65
		c0-5.04,0.04-8.01,2.67-10.64c1.78-1.78,4.04-2.78,7.08-2.78c3.04,0,5.27,1,7.05,2.78c2.63,2.63,2.71,5.6,2.71,10.64
		C220.95,18.87,220.88,21.83,218.25,24.47 M214.5,6.41C213.76,5.55,212.61,5,211.2,5c-1.41,0-2.56,0.56-3.34,1.41
		c-0.97,1.11-1.26,2.37-1.26,7.42c0,5.05,0.3,6.27,1.26,7.38c0.78,0.85,1.93,1.45,3.34,1.45c1.41,0,2.56-0.6,3.3-1.45
		c0.96-1.11,1.3-2.34,1.3-7.38C215.8,8.78,215.46,7.52,214.5,6.41"/>
	<polygon class="st0" points="241.83,27.03 231.37,10.82 231.37,27.03 226.22,27.03 226.22,0.62 230.81,0.62 241.27,16.79 
		241.27,0.62 246.43,0.62 246.43,27.03 	"/>
	<path class="st1" d="M44.92,20.81c-0.04-0.59-0.1-1.18-0.19-1.76c-0.27-1.78-0.75-3.49-1.42-5.1c-0.64-1.55-1.46-3.01-2.42-4.35
		c-0.96-1.33-2.06-2.55-3.28-3.64c-1.29-1.15-2.72-2.14-4.26-2.95c-1.72-0.91-3.57-1.6-5.51-2.03c-1.51-0.33-3.09-0.51-4.7-0.51
		c-1.64,0-3.23,0.18-4.76,0.52h0c-1.94,0.43-3.79,1.12-5.5,2.04C11.33,3.85,9.91,4.85,8.62,6c-2.43,2.16-4.37,4.86-5.65,7.91
		C2.96,13.94,2.95,13.97,2.94,14c-0.67,1.62-1.14,3.33-1.4,5.11v0c-0.08,0.54-0.14,1.08-0.18,1.63c-0.04,0.52-0.06,1.04-0.06,1.57
		c0,0.99,0.07,1.95,0.19,2.91v0c0.06,0.47,0.14,0.94,0.23,1.4c0.29,1.4,0.63,3.16,1.62,4.92c0.45,0.8,1.22,1.95,2.54,3.1
		c0-4.09,0-8.18,0-12.26c5.75-4.31,11.49-8.61,17.24-12.91c5.75,4.28,11.49,8.57,17.24,12.85c0,4.09,0,8.17,0.01,12.26
		c1.32-1.11,2.08-2.22,2.52-2.98c0.98-1.7,1.32-3.39,1.63-4.91c0.15-0.71,0.22-1.29,0.26-1.53c0.12-0.93,0.18-1.87,0.18-2.83
		C44.97,21.81,44.95,21.3,44.92,20.81"/>
	<path class="st1" d="M13,27.68c-0.01,4.08-0.02,8.17-0.02,12.25c2.12,1.58,4.24,3.17,6.36,4.75c0-4.22,0-8.44,0.01-12.67
		c1.26-0.96,2.53-1.91,3.79-2.87c1.26,0.95,2.52,1.89,3.78,2.84c0,4.22,0,8.43,0,12.65c2.07-1.55,4.15-3.1,6.22-4.65
		c0-4.09,0-8.18,0-12.27c-3.32-2.51-6.65-5.02-9.98-7.53C19.77,22.69,16.39,25.19,13,27.68"/>
</g>
<g>
	<g>
	</g>
</g>
<g>
	<defs>
		<rect id="SVGID_3_" y="0" width="247.75" height="44.79"/>
	</defs>
	<clipPath id="SVGID_4_">
		<use xlink:href="#SVGID_3_"  style="overflow:visible;"/>
	</clipPath>
	<g class="st2">
		<path class="st3" d="M60.03,39.52v-4.57l0.1,0.1l-2.91,4.46h-0.67v-5.81h0.81v4.63l-0.1-0.1l2.92-4.53h0.66v5.81H60.03z"/>
		<path class="st3" d="M62.55,33.72h0.81v5.81h-0.81V33.72z M63.06,36.28h3.22v0.77h-3.22V36.28z M65.85,33.72h0.82v5.81h-0.82
			V33.72z"/>
		<path class="st3" d="M68.38,33.72h0.81v5.81h-0.81V33.72z M68.86,38.77h1.57c0.41,0,0.71-0.08,0.9-0.24
			c0.19-0.16,0.28-0.38,0.28-0.66v-0.01c0-0.2-0.03-0.37-0.1-0.51c-0.07-0.14-0.18-0.25-0.32-0.33c-0.15-0.08-0.33-0.11-0.56-0.11
			h-1.77v-0.74h1.77c0.3,0,0.53-0.07,0.68-0.21c0.15-0.14,0.23-0.35,0.23-0.63c0-0.29-0.09-0.51-0.26-0.65s-0.43-0.22-0.77-0.22
			h-1.66v-0.75h1.81c0.38,0,0.69,0.06,0.94,0.19s0.44,0.31,0.57,0.54s0.19,0.51,0.19,0.84c0,0.2-0.04,0.39-0.12,0.56
			c-0.08,0.17-0.19,0.32-0.35,0.45c-0.16,0.12-0.35,0.21-0.59,0.25c0.23,0.03,0.44,0.12,0.61,0.25c0.17,0.13,0.3,0.3,0.39,0.49
			c0.09,0.2,0.14,0.41,0.14,0.64v0.01c0,0.31-0.07,0.59-0.21,0.83c-0.14,0.24-0.34,0.42-0.6,0.56c-0.26,0.13-0.56,0.2-0.9,0.2h-1.88
			V38.77z"/>
		<path class="st3" d="M73.94,33.72h0.81v5.81h-0.81V33.72z M74.34,33.72h3.34v0.78h-3.34V33.72z M74.34,36.26h2.9v0.78h-2.9V36.26z
			 M74.34,38.75h3.34v0.78h-3.34V38.75z"/>
		<path class="st3" d="M80.41,39.59c0,0-0.15-0.09-0.46-0.27c-0.31-0.18-0.54-0.43-0.71-0.76c-0.17-0.33-0.25-0.71-0.25-1.14v-1.59
			c0-0.43,0.08-0.81,0.25-1.14c0.17-0.33,0.4-0.58,0.71-0.76c0.3-0.18,0.66-0.27,1.06-0.27c0.33,0,0.64,0.07,0.92,0.21
			c0.28,0.14,0.51,0.34,0.7,0.61c0.19,0.26,0.31,0.56,0.38,0.91h-0.83c-0.05-0.18-0.14-0.34-0.25-0.49s-0.26-0.25-0.42-0.33
			c-0.16-0.08-0.33-0.12-0.5-0.12c-0.24,0-0.44,0.06-0.62,0.17c-0.18,0.11-0.32,0.27-0.42,0.48c-0.1,0.21-0.15,0.45-0.15,0.72v1.59
			c0,0.27,0.05,0.51,0.15,0.72c0.1,0.21,0.24,0.37,0.42,0.48c0.18,0.11,0.39,0.17,0.62,0.17c0.17,0,0.34-0.04,0.5-0.11
			c0.16-0.07,0.3-0.18,0.42-0.32c0.12-0.14,0.2-0.31,0.25-0.5h0.83c-0.07,0.34-0.19,0.65-0.38,0.91c-0.19,0.26-0.42,0.46-0.7,0.6
			c-0.28,0.14-0.58,0.21-0.92,0.21C80.61,39.59,80.41,39.59,80.41,39.59z"/>
		<path class="st3" d="M83.65,33.72h4.1v0.78h-4.1V33.72z M85.29,34.19h0.81v5.33h-0.81V34.19z"/>
		<path class="st3" d="M92.31,39.52v-4.57l0.1,0.1l-2.91,4.46h-0.67v-5.81h0.81v4.63l-0.1-0.1l2.92-4.53h0.66v5.81H92.31z"/>
		<path class="st3" d="M94.83,33.72h0.81v5.81h-0.81V33.72z M95.33,38.75h3.86v0.78h-3.86V38.75z M98.13,33.72h0.82v5.81h-0.82
			V33.72z M98.91,38.75h0.81v1.98h-0.81V38.75z"/>
		<path class="st3" d="M104.53,39.52v-4.57l0.1,0.1l-2.91,4.46h-0.67v-5.81h0.81v4.63l-0.1-0.1l2.92-4.53h0.66v5.81H104.53z"/>
		<path class="st3" d="M107.89,39.32c-0.31-0.18-0.55-0.43-0.72-0.75s-0.25-0.7-0.25-1.13V35.8c0-0.43,0.08-0.8,0.25-1.13
			c0.17-0.32,0.41-0.57,0.72-0.75c0.31-0.18,0.67-0.27,1.07-0.27s0.76,0.09,1.07,0.27c0.31,0.18,0.55,0.43,0.72,0.75
			c0.17,0.32,0.25,0.7,0.25,1.13v1.65c0,0.43-0.08,0.8-0.25,1.13c-0.17,0.32-0.41,0.57-0.72,0.75c-0.31,0.18-0.67,0.27-1.07,0.27
			S108.2,39.5,107.89,39.32z M109.6,38.62c0.18-0.11,0.32-0.26,0.42-0.46c0.1-0.2,0.15-0.43,0.15-0.69v-1.7
			c0-0.26-0.05-0.49-0.15-0.69c-0.1-0.2-0.24-0.35-0.42-0.46c-0.18-0.11-0.39-0.16-0.63-0.16s-0.45,0.05-0.63,0.16
			c-0.18,0.11-0.32,0.26-0.42,0.46c-0.1,0.2-0.15,0.43-0.15,0.69v1.7c0,0.26,0.05,0.49,0.15,0.69c0.1,0.2,0.24,0.35,0.42,0.46
			c0.18,0.11,0.39,0.16,0.63,0.16S109.41,38.73,109.6,38.62z"/>
		<path class="st3" d="M112.52,33.72h0.81v5.81h-0.81V33.72z M113.03,36.28h3.22v0.77h-3.22V36.28z M115.82,33.72h0.82v5.81h-0.82
			V33.72z"/>
		<path class="st3" d="M118.35,33.72h0.81v5.81h-0.81V33.72z M118.86,36.28h3.22v0.77h-3.22V36.28z M121.65,33.72h0.82v5.81h-0.82
			V33.72z"/>
		<path class="st3" d="M125.04,39.32c-0.31-0.18-0.55-0.43-0.72-0.75c-0.17-0.32-0.25-0.7-0.25-1.13V35.8c0-0.43,0.08-0.8,0.25-1.13
			c0.17-0.32,0.41-0.57,0.72-0.75c0.31-0.18,0.67-0.27,1.07-0.27c0.4,0,0.76,0.09,1.07,0.27c0.31,0.18,0.55,0.43,0.72,0.75
			c0.17,0.32,0.25,0.7,0.25,1.13v1.65c0,0.43-0.08,0.8-0.25,1.13c-0.17,0.32-0.41,0.57-0.72,0.75c-0.31,0.18-0.67,0.27-1.07,0.27
			C125.7,39.59,125.34,39.5,125.04,39.32z M126.74,38.62c0.18-0.11,0.32-0.26,0.42-0.46c0.1-0.2,0.15-0.43,0.15-0.69v-1.7
			c0-0.26-0.05-0.49-0.15-0.69c-0.1-0.2-0.24-0.35-0.42-0.46c-0.18-0.11-0.39-0.16-0.63-0.16c-0.24,0-0.45,0.05-0.63,0.16
			c-0.18,0.11-0.32,0.26-0.42,0.46c-0.1,0.2-0.15,0.43-0.15,0.69v1.7c0,0.26,0.05,0.49,0.15,0.69c0.1,0.2,0.24,0.35,0.42,0.46
			c0.18,0.11,0.39,0.16,0.63,0.16C126.35,38.78,126.56,38.73,126.74,38.62z"/>
		<path class="st3" d="M132.34,37.06v0.78h-2.68v-0.78H132.34z"/>
		<path class="st3" d="M133.33,33.72h0.93l1.71,4.16l-0.53,0.65L133.33,33.72z M136.27,38.32c-0.1,0.28-0.22,0.52-0.35,0.7
			c-0.13,0.18-0.29,0.32-0.47,0.42s-0.39,0.14-0.63,0.14h-0.67v-0.8h0.67c0.12,0,0.23-0.03,0.33-0.09s0.18-0.14,0.25-0.26
			s0.14-0.26,0.2-0.43l1.49-4.29h0.89L136.27,38.32z"/>
		<path class="st3" d="M139.08,33.72h0.82v5.81h-0.82V33.72z M139.59,33.72h3.22v0.78h-3.22V33.72z M142.38,33.72h0.82v5.81h-0.82
			V33.72z"/>
		<path class="st3" d="M144.91,33.72h0.82v5.81h-0.82V33.72z M145.33,36.5h1.86c0.18,0,0.33-0.04,0.46-0.12
			c0.13-0.08,0.24-0.2,0.31-0.35c0.07-0.15,0.11-0.33,0.11-0.52c0-0.2-0.04-0.38-0.11-0.53c-0.07-0.15-0.18-0.27-0.31-0.35
			c-0.13-0.08-0.29-0.13-0.46-0.13h-1.86v-0.78h1.83c0.35,0,0.65,0.07,0.92,0.22s0.47,0.36,0.61,0.63c0.15,0.27,0.22,0.58,0.22,0.94
			s-0.07,0.67-0.22,0.93s-0.35,0.47-0.61,0.62s-0.57,0.22-0.92,0.22h-1.83V36.5z"/>
		<path class="st3" d="M151.55,33.72h0.7l2.14,5.81h-0.88l-1.61-4.69l-1.61,4.69h-0.88L151.55,33.72z M150.39,37.48h3.06v0.78h-3.06
			V37.48z"/>
		<path class="st3" d="M155.53,33.72h0.81v5.81h-0.81V33.72z M156.01,38.77h1.58c0.41,0,0.71-0.08,0.9-0.24
			c0.19-0.16,0.28-0.38,0.28-0.66v-0.01c0-0.2-0.03-0.37-0.1-0.51c-0.07-0.14-0.17-0.25-0.32-0.33c-0.15-0.08-0.33-0.11-0.56-0.11
			h-1.77v-0.74h1.77c0.3,0,0.53-0.07,0.68-0.21c0.15-0.14,0.23-0.35,0.23-0.63c0-0.29-0.08-0.51-0.26-0.65
			c-0.17-0.14-0.43-0.22-0.77-0.22h-1.66v-0.75h1.81c0.38,0,0.69,0.06,0.94,0.19c0.25,0.13,0.44,0.31,0.57,0.54
			c0.13,0.23,0.19,0.51,0.19,0.84c0,0.2-0.04,0.39-0.12,0.56s-0.2,0.32-0.35,0.45s-0.35,0.21-0.59,0.25
			c0.23,0.03,0.44,0.12,0.61,0.25c0.17,0.13,0.3,0.3,0.39,0.49c0.09,0.2,0.14,0.41,0.14,0.64v0.01c0,0.31-0.07,0.59-0.21,0.83
			c-0.14,0.24-0.34,0.42-0.6,0.56c-0.26,0.13-0.56,0.2-0.9,0.2h-1.88V38.77z"/>
		<path class="st3" d="M160.73,38.75c0.23,0,0.42-0.05,0.57-0.16c0.15-0.11,0.25-0.28,0.32-0.5s0.1-0.52,0.1-0.89v-3.48h0.81v3.43
			c0,0.56-0.06,1.01-0.18,1.36c-0.12,0.35-0.31,0.6-0.56,0.77c-0.25,0.17-0.58,0.25-0.99,0.25h-0.08V38.75z M162.23,33.72h2.79v0.78
			h-2.79V33.72z M164.59,33.72h0.82v5.81h-0.82V33.72z"/>
		<path class="st3" d="M168.34,36.83l0.81,0.18l-1.41,2.52h-0.97L168.34,36.83z M168,37.19c0,0-0.13-0.07-0.38-0.22
			c-0.25-0.14-0.45-0.35-0.59-0.61c-0.14-0.26-0.21-0.57-0.21-0.91c0-0.35,0.07-0.65,0.21-0.91c0.14-0.26,0.34-0.47,0.59-0.61
			c0.25-0.14,0.55-0.22,0.88-0.22h1.91v0.78h-1.94c-0.16,0-0.3,0.04-0.41,0.12s-0.21,0.19-0.28,0.34s-0.1,0.31-0.1,0.51
			c0,0.19,0.03,0.36,0.1,0.5c0.07,0.15,0.16,0.26,0.28,0.34s0.26,0.12,0.41,0.12h1.94v0.77h-1.91C168.17,37.19,168,37.19,168,37.19z
			 M169.95,33.71h0.81v5.81h-0.81V33.71z"/>
		<path class="st3" d="M173.3,39.52h-0.82v-5.81h0.82V39.52z M172.8,36.26h2.26v0.78h-2.26V36.26z M175.51,39.32
			c-0.31-0.18-0.55-0.43-0.72-0.75c-0.17-0.32-0.25-0.7-0.25-1.13V35.8c0-0.43,0.08-0.8,0.25-1.13c0.17-0.32,0.41-0.57,0.72-0.75
			c0.31-0.18,0.67-0.27,1.07-0.27c0.41,0,0.76,0.09,1.07,0.27c0.31,0.18,0.55,0.43,0.72,0.75c0.17,0.32,0.25,0.7,0.25,1.13v1.65
			c0,0.43-0.08,0.8-0.25,1.13s-0.41,0.57-0.72,0.75c-0.31,0.18-0.67,0.27-1.07,0.27C176.17,39.59,175.82,39.5,175.51,39.32z
			 M177.21,38.62c0.18-0.11,0.32-0.26,0.42-0.46c0.1-0.2,0.15-0.43,0.15-0.69v-1.7c0-0.26-0.05-0.49-0.15-0.69
			c-0.1-0.2-0.24-0.35-0.42-0.46c-0.18-0.11-0.39-0.16-0.63-0.16c-0.24,0-0.45,0.05-0.63,0.16c-0.18,0.11-0.32,0.26-0.42,0.46
			s-0.15,0.43-0.15,0.69v1.7c0,0.26,0.05,0.49,0.15,0.69s0.24,0.35,0.42,0.46c0.18,0.11,0.39,0.16,0.63,0.16
			C176.82,38.78,177.03,38.73,177.21,38.62z"/>
		<path class="st3" d="M180.14,33.72h0.82v5.81h-0.82V33.72z M180.61,38.75h5.25v0.78h-5.25V38.75z M182.8,33.72h0.82v5.81h-0.82
			V33.72z M185.46,33.72h0.82v5.81h-0.82V33.72z M186.23,38.75h0.82v1.98h-0.82V38.75z"/>
		<path class="st3" d="M190.19,33.72h0.7l2.14,5.81h-0.88l-1.61-4.69l-1.61,4.69h-0.88L190.19,33.72z M189.03,37.48h3.06v0.78h-3.06
			V37.48z"/>
		<path class="st3" d="M195.4,36.83l0.81,0.18l-1.41,2.52h-0.97L195.4,36.83z M195.06,37.19c0,0-0.13-0.07-0.38-0.22
			c-0.25-0.14-0.45-0.35-0.59-0.61c-0.14-0.26-0.21-0.57-0.21-0.91c0-0.35,0.07-0.65,0.21-0.91c0.14-0.26,0.34-0.47,0.59-0.61
			c0.25-0.14,0.55-0.22,0.88-0.22h1.91v0.78h-1.94c-0.16,0-0.3,0.04-0.41,0.12s-0.21,0.19-0.28,0.34s-0.1,0.31-0.1,0.51
			c0,0.19,0.03,0.36,0.1,0.5c0.07,0.15,0.16,0.26,0.28,0.34s0.26,0.12,0.41,0.12h1.94v0.77h-1.91
			C195.23,37.19,195.06,37.19,195.06,37.19z M197.01,33.71h0.81v5.81h-0.81V33.71z"/>
		<path class="st3" d="M202.02,33.72h0.82v5.81h-0.82V33.72z M202.42,36.26h1.82v0.78h-1.82V36.26z M203.51,36.97l0.71-0.42
			l2.24,2.98h-1.13L203.51,36.97z M203.52,36.34l1.69-2.62h1.02l-2.3,3.34L203.52,36.34z"/>
		<path class="st3" d="M208.15,39.32c-0.31-0.18-0.55-0.43-0.72-0.75c-0.17-0.32-0.25-0.7-0.25-1.13V35.8c0-0.43,0.08-0.8,0.25-1.13
			c0.17-0.32,0.41-0.57,0.72-0.75c0.31-0.18,0.67-0.27,1.07-0.27c0.4,0,0.76,0.09,1.07,0.27c0.31,0.18,0.55,0.43,0.72,0.75
			c0.17,0.32,0.25,0.7,0.25,1.13v1.65c0,0.43-0.08,0.8-0.25,1.13c-0.17,0.32-0.41,0.57-0.72,0.75c-0.31,0.18-0.67,0.27-1.07,0.27
			C208.82,39.59,208.46,39.5,208.15,39.32z M209.86,38.62c0.18-0.11,0.32-0.26,0.42-0.46c0.1-0.2,0.15-0.43,0.15-0.69v-1.7
			c0-0.26-0.05-0.49-0.15-0.69c-0.1-0.2-0.24-0.35-0.42-0.46c-0.18-0.11-0.39-0.16-0.63-0.16c-0.24,0-0.45,0.05-0.63,0.16
			c-0.18,0.11-0.32,0.26-0.42,0.46c-0.1,0.2-0.15,0.43-0.15,0.69v1.7c0,0.26,0.05,0.49,0.15,0.69c0.1,0.2,0.24,0.35,0.42,0.46
			c0.18,0.11,0.39,0.16,0.63,0.16C209.46,38.78,209.68,38.73,209.86,38.62z"/>
		<path class="st3" d="M216.96,33.72h0.76v5.81h-0.8v-4.35l0.04,0.26l-1.43,3.29h-0.57l-1.43-3.21l0.04-0.34v4.35h-0.8v-5.81h0.76
			l1.71,3.84L216.96,33.72z"/>
		<path class="st3" d="M219.43,33.72h0.82v5.81h-0.82V33.72z M219.94,33.72h3.22v0.78h-3.22V33.72z M222.73,33.72h0.82v5.81h-0.82
			V33.72z"/>
		<path class="st3" d="M226.76,33.72h0.7l2.14,5.81h-0.88l-1.61-4.69l-1.61,4.69h-0.88L226.76,33.72z M225.61,37.48h3.06v0.78h-3.06
			V37.48z"/>
		<path class="st3" d="M230.75,33.72h0.82v5.81h-0.82V33.72z M231.25,36.28h3.22v0.77h-3.22V36.28z M234.05,33.72h0.82v5.81h-0.82
			V33.72z"/>
		<path class="st3" d="M240.06,39.52v-4.57l0.1,0.1l-2.91,4.46h-0.67v-5.81h0.81v4.63l-0.1-0.1l2.92-4.53h0.66v5.81H240.06z"/>
		<path class="st3" d="M243.81,36.83l0.81,0.18l-1.41,2.52h-0.97L243.81,36.83z M243.47,37.19c0,0-0.13-0.07-0.38-0.22
			c-0.25-0.14-0.45-0.35-0.59-0.61c-0.14-0.26-0.21-0.57-0.21-0.91c0-0.35,0.07-0.65,0.21-0.91c0.14-0.26,0.34-0.47,0.59-0.61
			c0.25-0.14,0.55-0.22,0.88-0.22h1.91v0.78h-1.94c-0.16,0-0.3,0.04-0.41,0.12s-0.21,0.19-0.28,0.34s-0.1,0.31-0.1,0.51
			c0,0.19,0.03,0.36,0.1,0.5c0.07,0.15,0.16,0.26,0.28,0.34s0.26,0.12,0.41,0.12h1.94v0.77h-1.91
			C243.64,37.19,243.47,37.19,243.47,37.19z M245.42,33.71h0.81v5.81h-0.81V33.71z"/>
	</g>
</g>
</svg>
